#!OML:ASF H:\Terrain\Patient Classification 1\Walking\liu\liu.ASF
:FULLY-SPECIFIED
:DEGREES
32
root 8.27895 15.2199 -33.3031 10.9496 -7.38363 -6.8108
lowerback -6.86219 4.71779 1.22427
upperback -0.138867 6.07546 3.19044
thorax 3.46836 3.01934 3.2008
lowerneck -22.0607 -5.72627 -13.4501
upperneck 16.0158 -6.53601 13.7537
head 9.62787 -2.40263 6.11133
rclavicle -5.6107e-014 5.96354e-015
rhumerus -4.93387 36.2636 -75.9707
rradius 55.1603
rwrist -23.0474
rhand -37.3024 -11.3563
rfingers 7.12502
rthumb -10.3664 -41.0808
lclavicle -5.6107e-014 5.96354e-015
lhumerus -64.0715 16.6749 48.1346
lradius 11.8301
lwrist -30.8507
lhand -11.7308 -25.9376
lfingers 7.12502
lthumb 14.3164 3.54881
rfemur 22.2784 4.91651 29.109
rtibia 3.62174
rfoot 0.294731 3.95053
rtoes -17.4244
lfemur -52.6567 6.73306 -14.7883
ltibia 35.3994
lfoot -1.03244 7.48922
ltoes -9.57577
33
root 8.29204 15.1976 -33.0374 10.7294 -7.25166 -5.99199
lowerback -6.9561 4.76399 0.243065
upperback 0.498291 6.20743 3.00115
thorax 4.09423 3.05773 3.6071
lowerneck -23.8402 -6.38328 -14.306
upperneck 15.9443 -7.08791 14.4865
head 10.0734 -2.56925 6.4414
rclavicle 4.96962e-016 1.70955e-014
rhumerus -4.25287 35.3145 -75.0661
rradius 55.5382
rwrist -23.0494
rhand -38.447 -8.12708
rfingers 7.12502
rthumb -11.4704 -37.7933
lclavicle 4.96962e-016 1.70955e-014
lhumerus -64.1514 19.7931 44.1723
lradius 11.0018
lwrist -34.9444
lhand -12.3993 -26.1769
lfingers 7.12502
lthumb 13.6722 3.35399
rfemur 20.7457 4.75474 28.1725
rtibia 8.80625
rfoot 0.147141 4.20966
rtoes -21.1756
lfemur -52.8172 6.81417 -15.9095
ltibia 37.6679
lfoot -1.04222 7.46174
ltoes -8.26213
34
root 8.30616 15.1746 -32.77 10.4428 -7.086 -5.46271
lowerback -6.55548 4.55807 -0.411352
upperback 0.188574 6.00734 2.78336
thorax 3.51501 2.96012 3.6644
lowerneck -23.1528 -6.289 -14.3825
upperneck 15.7653 -7.04797 14.663
head 9.89385 -2.56304 6.52147
rclavicle -2.65874e-014 5.96354e-015
rhumerus -5.84249 34.9809 -76.2765
rradius 55.8284
rwrist -22.7337
rhand -36.624 -9.7636
rfingers 7.12502
rthumb -9.71185 -39.5197
lclavicle -2.65874e-014 5.96354e-015
lhumerus -65.8359 20.774 40.8086
lradius 10.809
lwrist -36.7718
lhand -12.3045 -26.6804
lfingers 7.12502
lthumb 13.7636 2.84431
rfemur 20.1092 4.6068 27.5498
rtibia 12.2546
rfoot 1.5336 3.68598
rtoes -22.3799
lfemur -52.9494 7.07583 -16.8401
ltibia 39.852
lfoot -1.02632 6.89645
ltoes -6.97839
35
root 8.31992 15.1564 -32.5037 10.249 -7.04087 -5.39109
lowerback -6.3522 4.56139 -0.52485
upperback 0.120558 6.03004 2.60169
thorax 3.33722 2.97444 3.51773
lowerneck -23.0971 -6.33036 -13.9575
upperneck 15.6126 -7.21654 14.5499
head 9.83661 -2.62838 6.37191
rclavicle -1.87106e-014 1.53064e-014
rhumerus -6.8854 34.2234 -77.1236
rradius 55.9524
rwrist -22.4725
rhand -33.1952 -15.3454
rfingers 7.12502
rthumb -6.40264 -45.2286
lclavicle -1.87106e-014 1.53064e-014
lhumerus -65.9091 20.6506 40.2765
lradius 10.8677
lwrist -36.2206
lhand -11.6986 -26.7609
lfingers 7.12502
lthumb 14.3474 2.72327
rfemur 19.3191 4.06165 27.1657
rtibia 15.5202
rfoot 2.23132 4.07223
rtoes -25.4855
lfemur -53.1635 7.73464 -17.4433
ltibia 41.8144
lfoot -0.913835 5.77941
ltoes -5.07401
36
root 8.33353 15.1464 -32.2487 9.983 -7.06316 -5.28174
lowerback -6.01211 4.59581 -0.772475
upperback 0.151231 6.09953 2.51612
thorax 3.15819 3.00897 3.54046
lowerneck -23.1904 -6.51042 -13.8562
upperneck 15.4229 -7.49806 14.6698
head 9.83507 -2.73642 6.34571
rclavicle -7.45443e-017 -6.16232e-015
rhumerus -7.77057 33.7419 -77.5685
rradius 56.245
rwrist -22.6687
rhand -31.6593 -20.1982
rfingers 7.12502
rthumb -4.91979 -50.1211
lclavicle -7.45443e-017 -6.16232e-015
lhumerus -66.0059 21.1869 39.1631
lradius 10.729
lwrist -36.8529
lhand -11.3765 -27.3737
lfingers 7.12502
lthumb 14.6578 2.08818
rfemur 18.4479 3.4557 26.7019
rtibia 18.9366
rfoot 2.15667 4.94036
rtoes -27.0959
lfemur -53.103 8.40237 -18.0384
ltibia 43.4544
lfoot -1.15513 4.48993
ltoes -2.92996
37
root 8.34874 15.1473 -32.0053 9.59483 -7.12264 -4.81159
lowerback -5.28157 4.60282 -1.31722
upperback 0.0444719 6.15451 2.31811
thorax 2.60074 3.0417 3.56342
lowerneck -23.4076 -6.64818 -14.015
upperneck 15.6528 -7.67917 14.8672
head 10.0012 -2.79945 6.4244
rclavicle 4.31114e-014 -1.13307e-014
rhumerus -9.01048 33.3868 -78.2087
rradius 56.4812
rwrist -23.0576
rhand -32.4023 -21.1471
rfingers 7.12502
rthumb -5.6372 -51.0521
lclavicle 4.31114e-014 -1.13307e-014
lhumerus -66.4584 21.885 37.5776
lradius 10.6054
lwrist -38.1099
lhand -11.5031 -27.8611
lfingers 7.12502
lthumb 14.5358 1.60968
rfemur 17.5017 2.66577 25.7903
rtibia 22.5391
rfoot 4.53088 4.52733
rtoes -23.657
lfemur -52.6064 8.92099 -18.9614
ltibia 44.7434
lfoot -2.17944 3.37402
ltoes -3.00034
38
root 8.37103 15.1616 -31.759 9.20893 -7.17165 -4.1444
lowerback -4.68655 4.60798 -1.90686
upperback -0.0407809 6.20028 2.02795
thorax 2.14734 3.06893 3.53041
lowerneck -23.7993 -6.60111 -13.9561
upperneck 16.1885 -7.67139 14.9941
head 10.2644 -2.76037 6.48365
rclavicle -2.86001e-014 -7.7526e-015
rhumerus -10.271 32.9508 -78.902
rradius 56.4987
rwrist -23.4033
rhand -33.0612 -20.6347
rfingers 7.12502
rthumb -6.2733 -50.5218
lclavicle -2.86001e-014 -7.7526e-015
lhumerus -66.9446 22.8685 35.6933
lradius 10.5389
lwrist -39.7039
lhand -11.3652 -27.8505
lfingers 7.12502
lthumb 14.6687 1.61063
rfemur 16.361 1.5969 24.5264
rtibia 26.3841
rfoot 9.01598 2.86144
rtoes -18.3766
lfemur -51.7584 9.09363 -19.9252
ltibia 45.6695
lfoot -3.33648 2.95469
ltoes -3.5017
39
root 8.39635 15.1873 -31.509 8.85905 -7.26823 -3.33282
lowerback -4.32054 4.61185 -2.6385
upperback -0.00774864 6.24435 1.747
thorax 1.92762 3.08895 3.61363
lowerneck -23.8728 -6.57055 -14.0753
upperneck 16.1781 -7.65299 15.319
head 10.2944 -2.72148 6.63238
rclavicle 6.22444e-015 -1.59028e-015
rhumerus -11.2699 32.5059 -79.4775
rradius 56.4014
rwrist -23.577
rhand -33.5229 -20.8665
rfingers 7.12502
rthumb -6.719 -50.7399
lclavicle 6.22444e-015 -1.59028e-015
lhumerus -67.9023 24.8365 32.2976
lradius 10.2083
lwrist -42.9022
lhand -11.3263 -28.3739
lfingers 7.12502
lthumb 14.7062 1.08451
rfemur 15.0077 0.546125 23.0822
rtibia 30.4484
rfoot 11.6805 2.09554
rtoes -17.2646
lfemur -50.7079 9.05408 -20.8755
ltibia 46.2861
lfoot -4.29306 2.98922
ltoes -2.63844
40
root 8.41691 15.2214 -31.2606 8.51308 -7.51013 -2.25121
lowerback -4.09478 4.6221 -3.74145
upperback 0.243229 6.31412 1.46114
thorax 1.96929 3.10882 3.92251
lowerneck -24.1691 -6.81992 -14.6105
upperneck 15.7372 -7.8168 15.7179
head 10.2636 -2.77855 6.83312
rclavicle 6.73383e-015 -5.36719e-015
rhumerus -11.7361 32.0629 -79.7969
rradius 56.0909
rwrist -23.6173
rhand -33.6022 -20.8181
rfingers 7.12502
rthumb -6.79553 -50.6891
lclavicle 6.73383e-015 -5.36719e-015
lhumerus -67.3267 25.6434 32.7491
lradius 9.97006
lwrist -42.7568
lhand -11.9313 -28.4389
lfingers 7.12502
lthumb 14.1232 1.06114
rfemur 13.4948 -0.20995 21.4278
rtibia 34.69
rfoot 11.7185 1.32087
rtoes -17.2317
lfemur -49.5517 9.21056 -22.1641
ltibia 46.674
lfoot -5.41417 2.87976
ltoes -2.01875
41
root 8.43122 15.245 -31.0159 8.10426 -7.60507 -1.04769
lowerback -3.86371 4.55157 -5.02984
upperback 0.479136 6.28133 1.18653
thorax 1.98168 3.07412 4.33931
lowerneck -24.6522 -7.0108 -14.7453
upperneck 15.6072 -7.92144 15.5861
head 10.3185 -2.8303 6.78188
rclavicle -8.71174e-014 1.03368e-014
rhumerus -12.3293 31.6515 -80.2543
rradius 55.56
rwrist -23.6213
rhand -33.5398 -20.1842
rfingers 7.12502
rthumb -6.73536 -50.057
lclavicle -8.71174e-014 1.03368e-014
lhumerus -67.0285 26.2546 33.0567
lradius 10.0625
lwrist -43.0449
lhand -12.2545 -28.5099
lfingers 7.12502
lthumb 13.8117 1.01158
rfemur 12.0738 -0.84086 19.8175
rtibia 38.9542
rfoot 11.1898 -0.942189
rtoes -14.0479
lfemur -48.2832 9.28126 -23.557
ltibia 46.895
lfoot -6.88985 2.69382
ltoes -2.33829
42
root 8.45067 15.2668 -30.7849 8.01963 -8.04538 -0.123978
lowerback -3.62128 4.64634 -5.92846
upperback 0.354328 6.43794 0.828136
thorax 1.64407 3.15773 4.43768
lowerneck -25.1186 -6.87581 -14.14
upperneck 16.0202 -7.82775 15.1396
head 10.481 -2.77659 6.53826
rclavicle -9.74045e-015 -1.28216e-014
rhumerus -13.4873 31.0608 -81.1561
rradius 54.9689
rwrist -23.59
rhand -33.6568 -20.1629
rfingers 7.12502
rthumb -6.8483 -50.0321
lclavicle -9.74045e-015 -1.28216e-014
lhumerus -66.035 26.0141 34.7074
lradius 10.1804
lwrist -41.9452
lhand -12.3254 -28.3744
lfingers 7.12502
lthumb 13.7434 1.15169
rfemur 10.0476 -1.19099 18.4472
rtibia 43.2699
rfoot 11.4154 -3.90365
rtoes -9.02489
lfemur -47.3133 9.43766 -24.6295
ltibia 46.994
lfoot -8.27605 2.81481
ltoes -2.12621
43
root 8.47418 15.3089 -30.554 7.89351 -8.19017 0.7889
lowerback -3.41557 4.71795 -6.67677
upperback 0.592294 6.56412 0.512455
thorax 1.71604 3.20468 4.51972
lowerneck -26.1768 -7.34309 -14.7741
upperneck 16.1066 -8.19568 15.5024
head 10.8111 -2.90265 6.72557
rclavicle 1.65488e-014 3.97569e-015
rhumerus -13.8032 30.3061 -81.3999
rradius 54.3466
rwrist -23.5957
rhand -33.8841 -20.4949
rfingers 7.12502
rthumb -7.06772 -50.3569
lclavicle 1.65488e-014 3.97569e-015
lhumerus -65.324 27.4647 34.5979
lradius 10.0263
lwrist -43.1786
lhand -12.6095 -28.6287
lfingers 7.12502
lthumb 13.4696 0.915786
rfemur 7.81021 -1.97268 17.1562
rtibia 47.4815
rfoot 11.7562 -7.0797
rtoes -5.95665
lfemur -46.2198 9.36072 -25.6957
ltibia 46.9403
lfoot -9.28861 2.96485
ltoes -1.70391
44
root 8.49818 15.3555 -30.3322 7.75406 -8.24891 1.54414
lowerback -3.23333 4.43689 -7.41993
upperback 0.444408 6.20157 0.38377
thorax 1.44327 3.03106 4.76291
lowerneck -25.5052 -6.96224 -14.5757
upperneck 15.6653 -7.75158 15.3847
head 10.4409 -2.72899 6.70915
rclavicle -1.02126e-014 -6.4605e-015
rhumerus -15.0262 30.4338 -82.4573
rradius 53.7524
rwrist -23.4675
rhand -33.6979 -21.6033
rfingers 7.12502
rthumb -6.88791 -51.4712
lclavicle -1.02126e-014 -6.4605e-015
lhumerus -65.8748 28.2994 34.114
lradius 10.0416
lwrist -43.9328
lhand -13.0847 -29.2129
lfingers 7.12502
lthumb 13.0116 0.361286
rfemur 5.52345 -2.87554 16.0945
rtibia 51.4933
rfoot 11.1053 -9.82345
rtoes -4.877
lfemur -45.1163 9.38198 -26.6477
ltibia 46.766
lfoot -9.97202 3.04802
ltoes -1.57851
45
root 8.5181 15.3924 -30.1171 7.614 -8.42965 2.05037
lowerback -3.13134 4.34085 -7.83879
upperback 0.591286 6.08857 0.289926
thorax 1.52208 2.963 4.89359
lowerneck -25.7438 -6.84772 -14.4743
upperneck 15.5317 -7.55393 15.2802
head 10.3907 -2.63451 6.6826
rclavicle -1.60022e-014 1.2921e-014
rhumerus -15.6482 30.1116 -83.0946
rradius 52.9911
rwrist -23.2749
rhand -33.1653 -22.0392
rfingers 7.12502
rthumb -6.37383 -51.9233
lclavicle -1.60022e-014 1.2921e-014
lhumerus -64.9736 28.8915 35.5606
lradius 10.0888
lwrist -43.2412
lhand -13.2826 -29.2757
lfingers 7.12502
lthumb 12.8208 0.310568
rfemur 3.54178 -3.57468 15.3888
rtibia 55.1354
rfoot 8.62292 -12.5284
rtoes -1.90244
lfemur -43.9704 9.4973 -27.2419
ltibia 46.5303
lfoot -10.6882 3.0103
ltoes -0.410765
